<?xml version="1.0" encoding="UTF-8" standalone="no"?>
<!-- Created with Inkscape (http://www.inkscape.org/) -->

<svg
   width="210mm"
   height="297mm"
   viewBox="0 0 210 297"
   version="1.1"
   id="svg1"
   xml:space="preserve"
   inkscape:version="1.4 (86a8ad7, 2024-10-11)"
   sodipodi:docname="Геленджик.svg"
   xmlns:inkscape="http://www.inkscape.org/namespaces/inkscape"
   xmlns:sodipodi="http://sodipodi.sourceforge.net/DTD/sodipodi-0.dtd"
   xmlns="http://www.w3.org/2000/svg"
   xmlns:svg="http://www.w3.org/2000/svg"><sodipodi:namedview
     id="namedview1"
     pagecolor="#ffffff"
     bordercolor="#000000"
     borderopacity="0.25"
     inkscape:showpageshadow="2"
     inkscape:pageopacity="0.0"
     inkscape:pagecheckerboard="0"
     inkscape:deskcolor="#d1d1d1"
     inkscape:document-units="mm"
     inkscape:zoom="0.68862935"
     inkscape:cx="356.50528"
     inkscape:cy="514.79072"
     inkscape:window-width="1920"
     inkscape:window-height="991"
     inkscape:window-x="-9"
     inkscape:window-y="-9"
     inkscape:window-maximized="1"
     inkscape:current-layer="layer1" /><defs
     id="defs1" /><g
     inkscape:label="Слой 1"
     inkscape:groupmode="layer"
     id="layer1"><path
       style="fill:#000000;stroke-width:0.192109"
       d="m 159.42929,233.72807 c -0.79776,-0.25315 -1.32387,-0.64347 -1.32387,-0.98218 0,-0.12917 -0.1754,-0.3936 -0.38979,-0.58762 -0.37404,-0.3385 -0.76494,-0.39381 -5.99033,-0.84758 -0.0751,-0.007 -0.29125,-0.17387 -0.48027,-0.37188 -0.25906,-0.27136 -0.71055,-0.38254 -1.83362,-0.45149 -0.98547,-0.0605 -1.60412,-0.19481 -1.82718,-0.39668 -0.26575,-0.2405 -2.74262,-0.7129 -3.73783,-0.7129 -0.082,0 -0.33388,-0.18475 -0.55968,-0.41056 -0.22581,-0.2258 -0.76399,-0.48996 -1.19595,-0.58702 -0.43197,-0.0971 -0.84651,-0.27535 -0.92121,-0.39621 -0.0747,-0.12085 -0.48561,-0.19909 -0.91314,-0.17387 -0.42755,0.0252 -1.66529,-0.0555 -2.75056,-0.17933 -2.07453,-0.23677 -2.74425,-0.30274 -3.47385,-0.34219 -0.24422,-0.0132 -0.62963,-0.19692 -0.85645,-0.40824 -0.52721,-0.49117 -0.84882,-0.486 -1.16401,0.0187 -0.1384,0.22161 -0.30252,0.35203 -0.36473,0.28983 -0.0622,-0.0622 -0.23592,-0.0111 -0.38605,0.11344 -0.15619,0.12963 -1.09407,0.25348 -2.19238,0.28953 -2.164,0.071 -3.03279,-0.18912 -4.15494,-1.24406 -0.34625,-0.32552 -0.87923,-0.6467 -1.1844,-0.71372 -0.30517,-0.067 -0.79991,-0.33792 -1.09942,-0.60197 -0.7015,-0.61845 -2.45428,-1.8006 -2.67766,-1.80592 -0.0947,-0.002 -0.4136,-0.34532 -0.70861,-0.76235 -0.29501,-0.41704 -0.79209,-0.9093 -1.10462,-1.09392 -0.31253,-0.18462 -0.56824,-0.39643 -0.56824,-0.47069 0,-0.0743 -0.29043,-0.31451 -0.64539,-0.53389 -0.59366,-0.3669 -1.43872,-0.56262 -4.08212,-0.94542 -0.53977,-0.0782 -1.12069,-0.28141 -1.29092,-0.45164 -0.71616,-0.71616 -3.56557,-0.60584 -3.85533,0.14926 -0.14822,0.38624 -2.77357,0.38499 -2.92184,-0.001 -0.0574,-0.14959 -0.42845,-0.49657 -0.82456,-0.77108 -0.39611,-0.2745 -0.90794,-0.83313 -1.1374,-1.24139 -0.22945,-0.40827 -0.72017,-0.9734 -1.09049,-1.25585 -0.37031,-0.28245 -0.67329,-0.64513 -0.67329,-0.80595 0,-0.16083 -0.47522,-0.91286 -1.056037,-1.67118 -1.22224,-1.59576 -1.18215,-1.55151 -1.87362,-2.06836 -0.29056,-0.21719 -0.52897,-0.49667 -0.52978,-0.62108 -0.002,-0.28932 -1.39546,-1.09068 -1.89669,-1.09068 -0.43551,0 -0.46791,-0.0839 -0.887,-2.29563 -0.049,-0.25883 -0.22048,-0.54408 -0.38098,-0.6339 -0.16049,-0.0898 -0.29181,-0.26382 -0.29181,-0.38667 0,-0.12286 -0.2168,-0.39952 -0.48178,-0.61481 -0.39163,-0.3182 -0.50509,-0.62508 -0.60637,-1.64014 -0.10978,-1.10021 -0.20792,-1.33258 -0.82525,-1.95399 -0.38536,-0.3879 -0.80223,-0.92821 -0.92638,-1.20068 -0.12414,-0.27247 -0.31402,-0.4954 -0.42194,-0.4954 -0.10793,0 -0.19623,-0.10866 -0.19623,-0.24146 0,-0.13281 -0.28096,-0.50739 -0.62436,-0.83241 -0.6364,-0.60236 -1.83787,-2.02501 -2.1317,-2.52414 -0.0894,-0.15191 -0.39531,-0.50672 -0.67974,-0.78848 -0.28443,-0.28175 -0.66639,-0.7489 -0.84879,-1.03811 -0.1824,-0.2892 -0.69778,-0.71185 -1.14529,-0.93921 -1.38652,-0.70444 -2.09981,-1.74711 -1.38329,-2.02206 0.4616,-0.17714 1.04991,-1.58973 1.04991,-2.52097 0,-0.64127 -0.14577,-1.04801 -0.60452,-1.68681 -0.33249,-0.46298 -0.67111,-0.80062 -0.7525,-0.75032 -0.0814,0.0503 -0.28765,-0.32904 -0.45835,-0.84299 -0.37219,-1.12052 -0.80695,-1.54854 -2.26458,-2.2294 -0.60624,-0.28317 -1.17845,-0.65102 -1.27158,-0.81743 -0.12242,-0.21874 -0.57029,-0.3283 -1.61657,-0.39545 -1.30158,-0.0835 -1.482421,-0.0518 -1.796821,0.3154 -0.19227,0.22456 -0.54576,0.40828 -0.78553,0.40828 -0.23977,0 -0.54392,0.1729 -0.67589,0.38422 -0.13197,0.21132 -0.31178,0.38422 -0.39957,0.38422 -0.23346,0 -0.7085,0.51362 -0.7085,0.76605 0,0.11944 -0.0744,0.1712 -0.16529,0.11501 -0.0909,-0.0562 -0.22079,0.42879 -0.28861,1.07772 -0.0678,0.64894 -0.17349,1.23006 -0.23481,1.29137 -0.0613,0.0613 -0.38167,-0.19103 -0.7119,-0.56077 -0.6769,-0.75787 -1.33028,-1.14929 -1.93523,-1.15932 -0.49395,-0.008 -0.86739,-0.22118 -2.26127,-1.28962 -0.58561,-0.44889 -1.16442,-1.03491 -1.28623,-1.30227 -0.12182,-0.26737 -0.51941,-0.66189 -0.88353,-0.87673 -0.36413,-0.21484 -0.8374,-0.68782 -1.05172,-1.05106 -0.21432,-0.36325 -0.52544,-0.66045 -0.69138,-0.66045 -0.45153,0 -2.53043,-2.10786 -2.86192,-2.9018 -0.15904,-0.3809 -0.59581,-0.96179 -0.9706,-1.29086 -0.77814,-0.68322 -0.84199,-0.91743 -0.29723,-1.09032 0.21132,-0.0671 0.38422,-0.22715 0.38422,-0.35574 0,-0.12859 0.25935,-0.387 0.57633,-0.57424 0.31697,-0.18725 0.57632,-0.42201 0.57632,-0.52169 0,-0.0997 0.12631,-0.18125 0.28068,-0.18125 0.46705,0 1.0641,-0.80203 1.06378,-1.42901 -1.6e-4,-0.32347 -0.15145,-0.87263 -0.33619,-1.22036 -0.18474,-0.34772 -0.66703,-1.27166 -1.07176,-2.0532 -0.40473,-0.78154 -0.96665,-1.57002 -1.24871,-1.75219 -0.28206,-0.18215 -0.69258,-0.51172 -0.91228,-0.73236 -0.95519,-0.95931 -2.2604,-1.88273 -3.45448,-2.44402 -0.54577,-0.25654 -0.85048,-0.53225 -0.88948,-0.80481 -0.0326,-0.22803 -0.29704,-0.52818 -0.58761,-0.66701 -0.6038,-0.2885 -0.70851,-0.80778 -0.16287,-0.80778 0.23331,0 0.43806,-0.20837 0.56633,-0.57633 0.1105,-0.31698 0.32583,-0.57633 0.47851,-0.57633 0.33,0 0.51082,-0.40629 0.51082,-1.14781 0,-0.29703 0.10806,-0.58167 0.24014,-0.63253 0.34631,-0.13336 0.78609,-1.78196 0.64035,-2.40047 -0.32519,-1.38014 -0.0379,-2.59766 0.63729,-2.70043 0.22182,-0.0338 0.40331,-0.14575 0.40331,-0.24887 0,-0.10311 0.21082,-0.3983 0.46849,-0.65597 0.29268,-0.29268 0.49094,-0.73999 0.5283,-1.19195 l 0.0598,-0.72345 1.29059,0.0293 c 0.98389,0.0223 1.41083,0.12382 1.7965,0.42719 0.27824,0.21887 0.81086,0.45515 1.18358,0.52508 0.43107,0.0809 0.71177,0.25748 0.77135,0.48532 0.0515,0.197 0.2592,0.35818 0.46151,0.35818 0.20231,0 0.41503,0.12296 0.47269,0.27324 0.1618,0.42164 1.51287,0.87941 2.59548,0.87941 0.83248,0 1.05325,0.0831 1.50461,0.56628 0.29094,0.31145 0.46656,0.63563 0.39026,0.72041 -0.0763,0.0848 -0.18713,0.47438 -0.24629,0.86579 -0.082,0.54245 -0.0126,0.83243 0.29194,1.21957 0.39873,0.50689 0.33979,0.67998 -0.30925,0.90819 -0.25045,0.0881 -0.36439,4.77126 -0.13102,5.38507 0.10799,0.28405 0.31892,0.51645 0.46872,0.51645 0.1498,0 0.31741,0.11739 0.37246,0.26085 0.0551,0.14347 0.37415,0.31566 0.7091,0.38265 0.33495,0.067 0.85281,0.2954 1.15079,0.50759 0.29799,0.21218 0.75411,0.38578 1.01362,0.38578 1.22972,0 2.22461,0.24944 2.3109,0.57938 0.058,0.22178 0.3568,0.38476 0.86182,0.47008 0.54701,0.0924 0.80247,0.24312 0.87367,0.51538 0.0553,0.21162 0.279931,0.43166 0.499091,0.48897 0.37599,0.0983 0.39847,0.23758 0.39847,2.46789 v 2.36369 l 0.59627,0.13096 c 0.32795,0.072 1.06863,0.072 1.64596,-1.9e-4 0.9876,-0.12339 1.13317,-0.21545 2.46124,-1.55651 0.8267,-0.83479 1.57211,-1.42536 1.79905,-1.42536 0.21878,0 0.4406,-0.16729 0.50945,-0.38422 0.0997,-0.31415 0.29067,-0.38422 1.04714,-0.38422 0.76363,0 0.94274,0.0671 1.02566,0.38422 0.0553,0.21132 0.23947,0.38422 0.40934,0.38422 0.49544,0 1.42199,1.18219 1.56168,1.99255 0.0863,0.50073 0.24697,0.7749 0.49158,0.83887 0.28657,0.0749 0.36337,0.27265 0.36337,0.93548 0,0.6324 0.0951,0.89985 0.38422,1.0804 0.21132,0.13197 0.38422,0.34882 0.38422,0.4819 0,0.13307 0.0864,0.24195 0.1921,0.24195 0.10567,0 0.19211,0.30256 0.19211,0.67237 0,0.54169 0.0738,0.67238 0.37979,0.67238 0.20889,0 0.5214,0.21612 0.69448,0.48027 0.22448,0.34261 0.48732,0.48061 0.91694,0.48145 0.67622,0.001 1.67542,0.46039 1.90844,0.87679 0.1103,0.19708 0.53094,0.27468 1.48894,0.27468 0.73437,0 1.33522,0.0723 1.33522,0.16066 0,0.14345 2.341,0.79989 2.852547,0.79989 0.11227,0 0.5226,0.21612 0.91184,0.48027 0.95616,0.64887 1.93029,0.64887 2.22593,0 0.27974,-0.61395 0.79381,-0.61395 1.19609,0 0.23369,0.35667 0.48306,0.48027 0.96891,0.48027 0.35983,0 0.77025,0.11602 0.91205,0.25782 0.53786,0.53786 1.13437,0.70272 2.54257,0.70272 1.33286,0 1.45345,0.0324 1.45345,0.39025 0,0.21464 0.10806,0.4256 0.24013,0.46881 0.253,0.0828 1.74279,0.26724 2.29236,0.28383 0.17778,0.005 0.37672,0.17824 0.44207,0.38416 0.0653,0.20591 0.30892,0.43124 0.54125,0.50073 0.23233,0.0695 0.5566,0.29552 0.72061,0.5023 0.25931,0.32694 0.56838,0.38064 2.36991,0.41179 1.93872,0.0335 2.09422,0.008 2.42212,-0.39643 0.19272,-0.23773 0.44295,-0.43224 0.55608,-0.43224 0.11312,0 0.2572,-0.20528 0.32017,-0.45617 0.063,-0.25089 0.32397,-0.55161 0.57999,-0.66826 0.26912,-0.12262 0.46549,-0.37592 0.46549,-0.60043 0,-0.33101 0.1347,-0.39275 0.91252,-0.41821 1.491,-0.0488 1.85319,0.0328 2.25727,0.50868 0.28269,0.33291 0.66344,0.48442 1.44082,0.57333 1.99736,0.22845 2.03899,0.24795 2.28536,1.07025 0.15848,0.52896 0.33536,0.75924 0.58315,0.75924 0.21749,0 0.4017,0.18334 0.47411,0.47186 0.0892,0.35531 0.28999,0.50404 0.813,0.60216 0.382,0.0717 0.87237,0.3348 1.08969,0.58474 0.21732,0.24994 0.4876,0.45636 0.60062,0.45871 0.11302,0.002 0.42161,0.17333 0.68576,0.37995 0.60959,0.47682 1.06166,0.48303 1.38666,0.019 0.14068,-0.20086 0.46976,-0.39536 0.7313,-0.43224 0.35515,-0.0501 0.4909,-0.20079 0.5363,-0.59536 0.043,-0.37363 0.16976,-0.5283 0.43298,-0.5283 0.27667,0 0.42934,-0.21364 0.59483,-0.8324 0.13884,-0.51913 0.37354,-0.89869 0.62361,-1.00857 0.75899,-0.33347 0.59739,-2.96175 -0.1821,-2.96175 -0.22926,0 -0.2814,-0.37373 -0.2814,-2.01714 0,-1.87571 0.0264,-2.01714 0.37673,-2.01714 0.20721,0 0.54808,0.18392 0.7575,0.4087 0.29202,0.31345 0.50644,0.37796 0.92,0.27679 1.22693,-0.30015 1.47596,-0.23476 1.96187,0.51519 0.545,0.84114 0.93957,0.90693 1.44031,0.24013 0.29682,-0.39526 0.52356,-0.48027 1.28094,-0.48027 0.80809,0 0.92776,0.0527 0.98166,0.43225 0.0338,0.23773 0.25027,0.51516 0.48113,0.61649 0.32068,0.14077 0.45018,0.41281 0.5487,1.15266 0.0742,0.55723 0.32421,1.22804 0.58883,1.57993 0.28622,0.38062 0.45987,0.87208 0.45987,1.30154 0,0.61477 0.0636,0.70271 0.58315,0.80663 0.80145,0.16029 0.99197,0.59754 0.66285,1.52127 -0.14773,0.41462 -0.27239,1.02274 -0.27703,1.35139 -0.0173,1.22879 -0.25643,2.38014 -0.49426,2.38014 -0.13282,0 -0.29397,0.13675 -0.3581,0.30388 -0.18957,0.49401 -0.13295,3.53303 0.073,3.91784 0.19482,0.36402 1.01819,0.57527 2.40387,0.61676 0.49848,0.0149 0.9592,0.18141 1.31147,0.4739 0.42332,0.35148 0.77377,0.45088 1.58965,0.45088 0.93962,0 1.06528,-0.0491 1.22921,-0.48027 0.24456,-0.64324 1.09769,-0.6786 1.18732,-0.0492 0.0496,0.34837 0.23641,0.4629 0.9739,0.59711 0.55247,0.10053 0.91252,0.26772 0.91252,0.4237 0,0.34856 1.14719,1.4122 1.66996,1.54832 0.2392,0.0623 0.44676,0.28869 0.48027,0.52387 0.0534,0.37472 0.19252,0.41957 1.4604,0.4708 1.09168,0.0441 1.48571,0.14095 1.78301,0.43824 0.20989,0.2099 0.63448,0.43221 0.94353,0.49401 0.49085,0.0982 0.57775,0.21806 0.68724,0.94822 0.0826,0.55054 0.23941,0.87204 0.45954,0.94191 0.18381,0.0583 0.43191,0.32053 0.55134,0.58265 0.12339,0.2708 0.37931,0.47658 0.59272,0.47658 0.26691,0 0.39317,0.15285 0.43637,0.52829 0.0435,0.37827 0.18354,0.54574 0.49303,0.58969 0.26497,0.0376 0.43224,0.19488 0.43224,0.40634 0,0.18972 0.19451,0.59093 0.43225,0.89158 0.23773,0.30065 0.51869,0.98228 0.62435,1.51475 l 0.19211,0.96812 0.99253,0.16843 c 0.70816,0.12017 1.01866,0.26835 1.08373,0.51717 0.0502,0.19181 0.0407,0.3992 -0.0209,0.46088 -0.17833,0.17832 -0.25456,0.92872 -0.14093,1.3873 0.081,0.32699 0.2964,0.4494 0.96796,0.55011 0.68918,0.10335 0.86376,0.20641 0.86376,0.50992 0,0.21882 0.16319,0.42306 0.38421,0.48086 0.35382,0.0925 0.53474,0.71537 0.37889,1.30437 -0.028,0.10566 -0.0521,0.53791 -0.0537,0.96054 -0.002,0.42264 -0.0542,0.81166 -0.11703,0.86449 -0.24146,0.20322 -0.59576,1.51314 -0.71322,2.63693 -0.0965,0.92285 -0.19936,1.19394 -0.48119,1.26764 -0.28428,0.0743 -0.35849,0.27642 -0.35849,0.97622 0,0.76664 -0.0526,0.88247 -0.4009,0.88247 -0.26904,0 -0.47246,0.18957 -0.61844,0.57633 -0.13107,0.34723 -0.35542,0.57632 -0.5644,0.57632 -0.19077,0 -0.42637,0.20915 -0.52355,0.46477 -0.0972,0.25562 -0.32144,0.54576 -0.49834,0.64476 -0.24223,0.13556 -0.30288,0.3765 -0.2457,0.97605 0.0699,0.73259 0.0393,0.79605 -0.38353,0.79605 -0.28431,0 -0.70729,0.2706 -1.1097,0.70993 -0.64025,0.69899 -0.65026,0.73709 -0.65026,2.475 0,1.60204 -0.0354,1.77435 -0.38325,1.86531 -0.21079,0.0551 -0.41511,0.21649 -0.45405,0.3586 -0.3854,1.40631 -0.38159,1.40204 -1.37594,1.5435 -1.41327,0.20105 -1.82104,0.75453 -1.82104,2.4717 0,1.48183 -0.0229,1.49985 -1.36566,1.07377 z"
       id="path9" /></g></svg>
